# xmcd
#
# Track frame offsets: 
#        150
#        28726
#        53102
#        79203
#        111604
#        140405
#        174531
#        205582
#        230708
#
# Disc length: 3372 seconds
#
# Revision: 0
# Processed by: cddbd v1.5.2PL0 Copyright (c) Steve Scherf et al.
# Submitted via: ExactAudioCopy v0.99pb5
#
DISCID=7e0d2a09
DTITLE=Pagan Hellfire - In Desolation, In Ruins (Reissued-2007)
DYEAR=2005
DGENRE=Black Metal
TTITLE0=Over Mountains Grand
TTITLE1=Clean
TTITLE2=Under The Ruling Stars
TTITLE3=Plague Winds Howl Again
TTITLE4=Leading To Downfall
TTITLE5=Hear The Trumpet Call
TTITLE6=Towards A Dead Horizon
TTITLE7=In Desolation, In Ruins
TTITLE8=Vlkodlak (bonus)
EXTD=
EXTT0=
EXTT1=
EXTT2=
EXTT3=
EXTT4=
EXTT5=
EXTT6=
EXTT7=
EXTT8=
PLAYORDER=
